<svg xmlns="http://www.w3.org/2000/svg" viewBox="0 0 301.5 81.1">
  <style>
    .st0{fill:none;stroke:#ea5;stroke-width:3;stroke-miterlimit:10}.st1{fill:white}
  </style>
  <g id="icon">
    <path d="M63.6 71H25.7c-4.1 0-7.4-3.3-7.4-7.4V25.7c0-4.1 3.3-7.4 7.4-7.4h37.9c4.1 0 7.4 3.3 7.4 7.4v37.9c0 4.1-3.3 7.4-7.4 7.4z" class="st0"/>
    <path d="M36.9 79.6H13.4c-3.4 0-6.2-2.8-6.2-6.2V49.9c0-3.4 2.8-6.2 6.2-6.2h23.5c3.4 0 6.2 2.8 6.2 6.2v23.5c0 3.4-2.8 6.2-6.2 6.2z" class="st0"/>
    <path d="M74.7 37.4H59.2c-3.5 0-6.4-2.9-6.4-6.4V15.5c0-3.5 2.9-6.4 6.4-6.4h15.5c3.5 0 6.4 2.9 6.4 6.4V31c0 3.6-2.8 6.4-6.4 6.4z" class="st0"/>
    <path d="M62.1 60.6H54c-1.7 0-3-1.4-3-3v-8.2c0-1.7 1.4-3 3-3h8.2c1.7 0 3 1.4 3 3v8.2c0 1.6-1.4 3-3.1 3z" class="st0"/>
    <path d="M12.1 16.5H5.9c-2.4 0-4.4-2-4.4-4.4V3.7c0-1.2 1-2.2 2.2-2.2h8.4c2.4 0 4.4 2 4.4 4.4v6.3c0 2.4-1.9 4.3-4.4 4.3z" class="st0"/>
  </g>
  <g id="name">
    <path d="M102.6 15.2v.4c-.8 0-1.4.1-1.8.3-.5.2-.9.4-1.3.8-.5.5-.8 1.2-1 2.1-.1.7-.1 1.5-.1 2.4v14.2c0 1.1.1 1.9.2 2.5.1.6.3 1.1.5 1.5.3.5.8.9 1.3 1.1.5.3 1.3.4 2.2.5v.4H89.9V41c.8 0 1.4-.1 1.9-.3.5-.2.9-.4 1.2-.8.4-.4.7-.9.9-1.6.1-.6.2-1.6.2-2.9V21.3c0-1.3-.1-2.3-.2-2.9-.1-.6-.4-1.2-.9-1.6-.4-.4-.8-.6-1.2-.8-.5-.2-1.1-.3-1.8-.3v-.4h12.6z" class="st1"/>
    <path d="M109.5 18.7v16.8c0 1.3.1 2.3.2 2.9.2.6.4 1.2.8 1.6.4.4.8.6 1.3.8.5.2 1.1.3 1.8.3v.4h-9.1v-.4c.8 0 1.4-.1 1.8-.3.5-.2.9-.4 1.3-.8s.7-.9.8-1.6c.2-.6.2-1.6.2-2.9V21.3c0-1.3-.1-2.3-.2-2.9-.2-.6-.4-1.2-.8-1.6-.4-.4-.8-.6-1.2-.8-.5-.2-1.1-.3-1.9-.3v-.4h7.6l16.1 20v-14c0-1.3-.1-2.3-.2-2.9-.2-.6-.4-1.2-.8-1.6-.4-.4-.8-.6-1.3-.8-.5-.2-1.1-.3-1.8-.3v-.4h9.1v.4c-1.3 0-2.4.4-3.1 1.1-.4.4-.7.9-.8 1.6-.2.6-.2 1.6-.2 2.9v20.3h-.9l-18.7-22.9z" class="st1"/>
    <path d="M143.7 27.8v7.7c0 1.3.1 2.3.2 2.9.1.6.4 1.1.8 1.6.4.4.8.6 1.3.8.5.2 1.1.3 1.9.3v.4h-12.7v-.4c.6 0 1.2-.1 1.8-.3.6-.2 1-.5 1.3-.8.4-.4.6-.9.8-1.6.2-.7.2-1.7.2-2.9V21.3c0-.8 0-1.7-.1-2.6-.1-1.1-.7-2-1.7-2.5-.6-.3-1.3-.5-2.3-.5v-.4h20.7l.6 6.3-.5.1c-.3-1-.6-1.7-.9-2.2-.6-1.1-1.5-2-2.6-2.6-.6-.4-1.4-.6-2.2-.8-.8-.1-2-.2-3.5-.2h-3.1v11.4h.8c2.3 0 4-.5 5.1-1.5.5-.4.8-1 1-1.6.2-.6.4-1.4.5-2.3h.5l-.1 11.7h-.5c-.1-1.3-.4-2.3-.7-3-.4-.7-.9-1.3-1.6-1.7-.5-.3-1.2-.6-2-.7-.8-.3-1.8-.4-3-.4z" class="st1"/>
    <path d="M158.2 28.6c0-2.2.5-4.2 1.4-6 1-1.8 2.3-3.5 4.2-4.8 1.4-1 2.8-1.8 4.4-2.3 1.6-.5 3.2-.8 4.8-.8 2 0 4 .4 5.9 1.3 1.9.9 3.6 2.1 5 3.7 2.3 2.6 3.5 5.5 3.5 8.8 0 1.6-.3 3.2-.9 4.8-.6 1.5-1.5 2.9-2.7 4.2-1.4 1.6-3.1 2.8-5.1 3.6-1.9.9-4 1.3-6.1 1.3-2.1 0-4.1-.4-6-1.3-1.9-.8-3.6-2-5-3.6-1.1-1.2-1.9-2.6-2.5-4.1-.6-1.6-.9-3.2-.9-4.8zm4.8.2c0 3.7 1 6.9 3.1 9.4.9 1.1 1.9 2 3 2.5 1 .5 2.3.8 3.6.8 1.4 0 2.6-.3 3.7-.8 1-.5 2.1-1.4 3-2.5 2.1-2.6 3.1-5.7 3.1-9.5 0-2.1-.3-4-.9-5.9-.6-1.8-1.4-3.4-2.4-4.7-.8-1.1-1.8-1.8-2.8-2.3-1-.5-2.3-.7-3.7-.7-1.4 0-2.6.2-3.6.7-1 .5-2 1.2-2.8 2.3-1 1.3-1.8 2.8-2.4 4.7-.6 1.9-.9 3.9-.9 6z" class="st1"/>
    <path d="M200.9 15.8c-.8 0-1.7 0-2.7.1-2 .1-3.5.4-4.5.8s-1.8 1.1-2.5 2.1c-.6.9-1 2.1-1.4 3.7h-.5l.4-7.1h26.8l.4 7.1h-.5c-.4-1.8-.9-3.1-1.7-4.1-.8-.9-1.9-1.6-3.3-2-1.2-.3-3.3-.5-6.2-.5v19.7c0 1.3.1 2.3.2 2.9.2.6.4 1.2.8 1.6.4.4.8.6 1.3.8.5.2 1.1.3 1.8.3v.4h-12.7v-.4c.8 0 1.4-.1 1.9-.3.5-.2.9-.4 1.3-.8s.7-.9.8-1.6c.2-.6.2-1.6.2-2.9V15.8z" class="st1"/>
    <path d="M239.3 15.2l.3 6.4h-.5c-.2-1.1-.5-2-.9-2.7-.4-.7-1-1.3-1.7-1.9-.6-.5-1.4-.8-2.2-1-.8-.2-2-.3-3.4-.3h-4.5v11.6h1.2c1.2 0 2.1-.1 2.7-.2s1.1-.4 1.5-.8c.4-.4.6-.8.8-1.3.2-.5.3-1.3.4-2.2h.5l-.1 10.3h-.5c-.1-1-.3-1.8-.5-2.4-.2-.6-.6-1.1-1-1.5-.4-.4-.9-.7-1.5-.9-.6-.2-1.4-.3-2.4-.3h-1.1v4.4c0 1.8 0 3 .1 3.9.1.8.3 1.5.5 2 .4.9 1.1 1.6 2.1 2 .9.4 2.1.6 3.6.6 1.6 0 2.9-.2 4-.6 1.1-.4 1.9-1 2.6-1.8.5-.6.9-1.2 1.2-1.9.3-.7.6-1.6.8-2.8h.5l-.3 7.7H218v-.4c.8 0 1.4-.1 1.8-.3.5-.2.9-.4 1.3-.8s.7-.9.8-1.6c.2-.6.2-1.6.2-2.9V21.3c0-1.3-.1-2.3-.2-2.9-.2-.6-.4-1.2-.8-1.6-.4-.4-.8-.6-1.2-.8-.5-.2-1.1-.3-1.9-.3v-.4h21.3z" class="st1"/>
    <path d="M267.7 15.1l.2 8.6h-.5c-.1-.4-.3-.7-.3-.8-.5-1.2-.8-2.2-1.1-2.8-.5-1.1-1.3-2.1-2.2-3-.7-.7-1.5-1.2-2.3-1.5-.8-.3-1.7-.5-2.7-.5-1.5 0-2.8.3-3.9.9-1 .6-1.9 1.3-2.7 2.4-.8 1-1.5 2.2-2 3.5-.8 1.9-1.1 4-1.1 6.4 0 2 .3 3.8.8 5.5.5 1.6 1.3 3 2.3 4.1 1.8 2 4.2 3 7.2 3 1.5 0 2.9-.3 4.1-.8 1.2-.5 2.1-1.2 2.8-2.2.8-1.1 1.3-2.5 1.7-4.3l.5.1c-.3 2-.8 3.6-1.7 4.8-.8 1.1-2 2-3.5 2.6-1.5.6-3.2.9-5.2.9-1.8 0-3.6-.3-5.2-.8-2.7-.8-4.7-2.4-6.2-4.6-1.5-2.2-2.2-4.9-2.2-7.9 0-2.4.4-4.5 1.3-6.5s2.1-3.6 3.6-4.8c1.2-.9 2.6-1.7 4.3-2.2 1.7-.5 3.3-.8 5-.8 1.6 0 3.3.3 5.1.9l1.6.5c.3.1.6.2.8.2.3 0 .6-.1.8-.4.1-.1.2-.3.3-.6h.4z" class="st1"/>
    <path d="M279 27.5h14v-6.2c0-1.3-.1-2.3-.2-2.9-.2-.6-.4-1.2-.8-1.6-.4-.4-.8-.6-1.3-.8-.5-.2-1.1-.3-1.9-.3v-.4h12.7v.4c-.8 0-1.4.1-1.8.3-.5.2-.9.4-1.3.8s-.7.9-.8 1.6c-.2.6-.2 1.6-.2 2.9v14.2c0 1.3.1 2.3.2 2.9.2.6.4 1.2.8 1.6.4.4.8.6 1.3.8s1.1.3 1.8.3v.4h-12.7v-.4c.8 0 1.4-.1 1.9-.3s.9-.4 1.3-.8.7-.9.8-1.6c.2-.6.2-1.6.2-2.9v-7.1h-14v7.1c0 1.3.1 2.3.2 2.9.2.6.4 1.2.8 1.6.4.4.8.6 1.2.8.5.2 1.1.3 1.9.3v.4h-12.7v-.4c.8 0 1.4-.1 1.9-.3.5-.2.9-.4 1.2-.8.4-.4.7-.9.9-1.6.1-.6.2-1.6.2-2.9V21.3c0-1.3-.1-2.3-.2-2.9-.1-.6-.4-1.2-.9-1.6-.4-.4-.8-.6-1.2-.8-.5-.2-1.1-.3-1.8-.3v-.4h12.7v.4c-.8 0-1.4.1-1.8.3-.5.2-.9.4-1.3.8s-.7.9-.8 1.6c-.3.6-.3 1.6-.3 2.9v6.2z" class="st1"/>
    <g>
      <path d="M97.4 64.7v6.6c0 1.2.1 2.2.2 2.8.2.6.4 1.1.8 1.5.4.3.8.6 1.2.8.5.2 1.1.3 1.8.3v.3H88.9v-.4c.8 0 1.4-.1 1.8-.3.5-.2.9-.4 1.2-.8.4-.4.7-.9.9-1.5.1-.6.2-1.5.2-2.8V57.8c0-1 0-1.9-.1-2.4-.1-.6-.3-1-.5-1.4-.3-.5-.8-.9-1.3-1.1-.5-.2-1.2-.4-2.1-.4h-.1v-.4h11.9c2.1 0 3.6.1 4.6.3 1 .2 1.9.6 2.7 1.2 1.9 1.3 2.8 3.1 2.8 5.3 0 2.2-.9 3.9-2.8 4.9-1 .5-2.2.9-3.6 1-.4 0-1.5.1-3.2.1h-3.9zm0-.6h1.9c1.3 0 2.3-.1 3-.3.7-.2 1.3-.5 1.9-1 1.3-1.1 1.9-2.5 1.9-4.3 0-1-.2-1.9-.6-2.8-.4-.8-.9-1.5-1.6-2-.8-.6-1.8-1-2.9-1.1h-3.8v11.5z" class="st1"/>
      <path d="M135.8 77h-11.1v-.4c1-.1 1.7-.2 2.1-.5.7-.4 1.1-1 1.1-1.7 0-.4-.2-1-.5-1.7l-.3-.7-1.6-3.7H118l-.9 2.2-.4 1c-.5 1.2-.8 2.1-.8 2.7 0 .4.1.7.3 1.1s.4.6.8.8c.4.3 1 .4 1.7.5v.4H111v-.4c.6 0 1.1-.2 1.6-.4s.9-.6 1.3-1.2c.4-.4.7-1 1.1-1.7.3-.7.8-1.7 1.4-3l6.2-14.8h1L131 72c.6 1.2 1 2.1 1.3 2.7.3.5.7.9 1.1 1.2.3.2.6.3.9.4.4.1.9.2 1.6.3v.4zm-10.7-9.2l-3.6-8.1-3.4 8.1h7z" class="st1"/>
      <path d="M136.2 77v-.4c1.1 0 2-.3 2.6-.9.4-.3.6-.8.7-1.3.1-.5.2-1.3.2-2.4V60.6c0-1.1-.1-1.9-.2-2.5-.1-.5-.4-1-.8-1.3-.3-.3-.7-.5-1.1-.6-.4-.1-.9-.2-1.5-.2v-.4h10.8v.4c-.6 0-1.1.1-1.5.2-.4.1-.7.3-1.1.6-.4.3-.6.8-.8 1.3s-.2 1.3-.2 2.4v9c0 1.4 0 2.4.1 3.1.1.7.2 1.2.5 1.7.4.8 1 1.3 1.8 1.7.8.4 1.8.5 3.1.5s2.5-.2 3.4-.5c.9-.3 1.7-.8 2.3-1.5.4-.5.7-1 1-1.6.3-.6.5-1.4.7-2.4h.4l-.2 6.4h-20.2z" class="st1"/>
      <path d="M168.3 55.6v.4c-.6 0-1.2.1-1.6.3-.4.1-.8.4-1.1.7-.4.4-.7 1-.8 1.7-.1.6-.1 1.2-.1 1.9v11.6c0 .9 0 1.6.1 2.1s.2.9.4 1.2c.3.4.7.7 1.1.9.5.2 1.1.3 1.8.4v.2h-10.8v-.4c.7 0 1.2-.1 1.6-.3s.8-.4 1.1-.7c.4-.3.6-.8.7-1.3s.2-1.3.2-2.4V60.6c0-1.1-.1-1.9-.2-2.4s-.4-.9-.7-1.3c-.3-.3-.7-.5-1.1-.7-.4-.1-.9-.2-1.6-.3v-.4h11z" class="st1"/>
      <path d="M177.2 66.1l7.2-6.6c.7-.6 1.2-1.1 1.3-1.3.2-.2.3-.5.3-.8 0-.5-.3-.9-.8-1.2-.3-.1-.8-.2-1.4-.3v-.4h7.3v.5c-.5 0-.9.1-1.2.2-.3.1-.7.3-1.1.6-.4.3-1.2.9-2.3 1.9l-5.5 4.9 7.8 9.2 1 1.1c.7.8 1.5 1.5 2.2 1.9.5.3.9.5 1.2.6.4.1.8.2 1.3.3v.3h-11.2v-.4c.8-.1 1.5-.2 1.8-.4.4-.2.6-.5.6-.9s-.2-1-.7-1.6c-.2-.3-.6-.9-1.3-1.6s-1.1-1.4-1.6-1.9l-3.8-4.4-1.1 1V72c0 1.1.1 1.9.2 2.4s.4.9.7 1.3c.3.3.7.5 1.1.7.4.1.9.2 1.6.3v.3H170v-.4c.7 0 1.2-.1 1.6-.3.4-.1.8-.4 1.1-.7.4-.3.6-.8.7-1.3s.2-1.3.2-2.4V60.6c0-1.1-.1-1.9-.2-2.4s-.4-.9-.7-1.3c-.3-.3-.7-.5-1.1-.7-.4-.1-.9-.2-1.6-.3v-.4h10.8v.5c-.6 0-1.2.1-1.6.3-.4.1-.8.4-1.1.7-.4.3-.6.8-.7 1.3-.1.5-.2 1.3-.2 2.4v5.4z" class="st1"/>
      <path d="M218.1 77H207v-.4c1-.1 1.7-.2 2.1-.5.7-.4 1.1-1 1.1-1.7 0-.4-.2-1-.5-1.7l-.3-.7-1.6-3.7h-7.5l-.9 2.2-.4 1c-.5 1.2-.8 2.1-.8 2.7 0 .4.1.7.3 1.1.2.3.4.6.8.8.4.3 1 .4 1.7.5v.4h-7.6v-.4c.6 0 1.1-.2 1.6-.4s.9-.6 1.3-1.2c.4-.4.7-1 1.1-1.7.3-.7.8-1.7 1.4-3l6.2-14.8h1l7.4 16.5c.6 1.2 1 2.1 1.3 2.7.3.5.7.9 1.1 1.2.3.2.6.3.9.4.4.1.9.2 1.6.3v.4zm-10.6-9.2l-3.6-8.1-3.4 8.1h7z" class="st1"/>
    </g>
  </g>
</svg>